<?xml version="1.0" encoding="UTF-8"?>
<svg width="32px" height="32px" viewBox="0 0 32 32" version="1.1" xmlns="http://www.w3.org/2000/svg" xmlns:xlink="http://www.w3.org/1999/xlink">
    <title>icons/team/anniver</title>
    <g id="icons/team/anniver" stroke="none" stroke-width="1" fill="none" fill-rule="evenodd">
        <rect id="ViewBox" x="0" y="0" width="32" height="32"></rect>
        <path d="M20.2465193,2 L20.8040309,2.05844209 C22.2490694,2.20992065 23.2913005,2.47650551 24.6150975,3.07966275 L24.8934508,3.25627944 L25.3228649,3.54358356 L25.270761,3.80311508 L25.2338258,3.9283759 C25.2076292,4.01468288 25.1692552,4.10841195 25.1207755,4.20579458 L25.062903,4.31019645 L25.2293163,4.48737475 L25.5355749,4.83153441 L25.595521,4.90172501 L25.6647366,4.79653192 L25.7744563,4.6000208 L25.8663306,4.40251619 L26.0127892,4.05249756 L26.3064397,4.29362844 C26.9911882,4.85590926 27.6273095,5.47533154 28.2079512,6.1452226 L28.2775234,6.34235464 C28.2712116,6.51873693 28.2010248,6.6979752 28.0594278,6.93524499 C27.9642393,7.09477363 27.831582,7.26254012 27.6715468,7.42858952 L27.4965687,7.59762517 L27.661777,7.89301348 L27.8212406,8.19790411 L27.8652633,8.28892329 L28.0286803,8.14687638 C28.2272076,7.96317999 28.4004871,7.77054835 28.5462591,7.5699075 L28.6827783,7.36663119 L28.9074196,7.0029922 L29.1545827,7.35323699 C29.7918908,8.25634048 30.3302185,9.22559711 30.7601796,10.2441075 L30.7706485,10.4368927 C30.6995265,10.6738087 30.5471254,10.8998432 30.3015144,11.1494018 C30.0673032,11.3874688 29.7487036,11.6170349 29.382213,11.8164275 L29.1304912,11.9433247 L29.1974887,12.2797068 L29.2541623,12.6223407 L29.2673024,12.7197216 L29.4928797,12.6186191 C29.9358178,12.4063013 30.3279781,12.1525248 30.6539661,11.8628818 L30.841495,11.6848369 L31.1723868,11.3485621 L31.3135756,11.8006446 C31.6405376,12.8475683 31.850236,13.9423426 31.9402949,15.0601682 L31.9214098,15.187368 C31.7885983,15.524182 31.5195559,15.7968913 31.0934279,16.0528314 C30.6483549,16.3203078 30.041028,16.5190515 29.3817268,16.6204108 L29.3192312,16.6285669 L29.2910924,16.8669751 L29.2215778,17.3259186 L29.2050901,17.4115875 L29.5025176,17.3746984 C30.1457076,17.279096 30.7356571,17.100289 31.2406438,16.8410768 L31.5440174,16.6674824 L32,16.3803191 L31.9781183,16.9207032 C31.9316449,18.0683962 31.7583607,19.2069472 31.4614459,20.3154612 L31.4061173,20.4227304 C31.1653592,20.7137834 30.812263,20.9119292 30.3165583,21.0533113 C29.7174542,21.224273 28.9431706,21.2527733 28.1477562,21.1420979 L28.0678374,21.1293288 L27.9738839,21.3438752 L27.8758413,21.5525689 L27.7305904,21.8433528 L28.0431878,21.8954257 C28.8189116,22.007316 29.5613191,21.9976193 30.2213289,21.857934 L30.4990024,21.7900858 L31.056125,21.6349105 L30.8378935,22.1718397 C30.356641,23.3558968 29.7328148,24.4760656 28.9802737,25.5074607 L28.896299,25.5838334 C28.5818315,25.7703577 28.191423,25.857957 27.6983058,25.8653857 C27.0475864,25.8752464 26.2627483,25.6988572 25.4907266,25.3785507 L25.3972725,25.3377453 L25.1423725,25.6289123 L24.8604152,25.9301533 L25.1787456,26.0730813 C25.8417018,26.3538578 26.5052876,26.5340388 27.1356055,26.5981703 L27.4478352,26.6204937 L28.0788859,26.6460293 L27.6417258,27.1016923 C26.933506,27.8398878 26.1535717,28.5052984 25.2346766,29.1261938 C24.8522982,29.2422178 24.4156153,29.228489 23.8945747,29.0978485 C23.3544923,28.9623359 22.7592995,28.6804402 22.1788805,28.2920044 L22.0904289,28.2304889 L21.8333609,28.3972613 C21.1260674,28.8360851 20.3928196,29.2072428 19.6418698,29.5054435 L19.1892417,29.6755668 L18.7327612,29.8279264 L18.4625157,29.9124856 L17.8950816,28.1012899 L18.1649873,28.0168229 C18.9621035,27.7673652 19.7508612,27.4138267 20.5165326,26.9655557 L20.6067503,26.9093713 L20.4186025,26.6873066 C20.0168999,26.1937993 19.6933045,25.6741926 19.4835775,25.1792252 L19.3883687,24.9340297 C19.1446666,24.2418644 19.120738,23.6688276 19.3406149,23.1779653 L19.4876254,23.0335578 C20.002,22.8145932 20.493662,22.5456921 20.9556121,22.2306827 L21.2940052,21.9999283 L21.3905659,22.3997812 C21.4871666,22.7997996 21.6704293,23.1990178 21.9242125,23.5707531 C22.2358762,24.0273119 22.6448768,24.4596263 23.1324406,24.8542441 L23.1912204,24.9004775 L23.3320952,24.7626378 L23.6357939,24.445941 L23.7226198,24.3475745 L23.4910902,24.1604574 C23.183742,23.8998159 22.9152441,23.6255497 22.6994874,23.3495938 L22.5477759,23.1424965 C22.0948836,22.4791482 21.9491131,21.8914268 22.1294626,21.3198553 L22.2003038,21.2037921 C22.648284,20.7606862 23.0540926,20.2688769 23.413026,19.7344848 L23.6455009,19.3883684 L23.8814552,19.7336872 C24.0493013,19.9793299 24.2570434,20.2088715 24.4955845,20.4142383 C24.8670435,20.7339424 25.3120021,21.0130338 25.8136406,21.2453175 L25.8884633,21.2779349 L26.0280929,21.0139811 L26.1726619,20.7218583 L26.2292714,20.5968588 L26.2145565,20.590799 C25.8310059,20.4194891 25.483905,20.2206678 25.1936849,20.0044305 L24.9870043,19.8391449 C24.4811949,19.4039659 24.2101912,18.9680354 24.1722817,18.4823145 L24.19821,18.3396066 C24.438948,17.8254465 24.6419941,17.2851762 24.8057635,16.7233833 L24.9216162,16.3259631 L25.2496988,16.5789432 C25.4328121,16.7201394 25.6302774,16.8414978 25.8390364,16.9411037 C26.2534821,17.1393609 26.7245714,17.281277 27.2350854,17.3653237 L27.2901919,17.3729034 L27.3469731,17.084505 L27.4008773,16.7636366 L27.4189701,16.6204867 L27.1423463,16.5717422 C26.8682056,16.5157789 26.6117096,16.4418099 26.3819748,16.3515993 L26.1614979,16.2560401 C25.6358327,16.0043843 25.3110888,15.7083978 25.1631898,15.3154767 L25.1480888,15.1723894 C25.2379577,14.5779421 25.2848942,13.9776165 25.2885322,13.3760967 L25.290873,12.9890436 L25.6582645,13.1085759 C25.7908175,13.1517026 25.9262206,13.1853564 26.0624808,13.2091162 C26.4847814,13.2812272 26.9437958,13.2860888 27.4249255,13.2270692 L27.4495724,13.2229407 L27.4311985,13.061294 C27.4112871,12.9179508 27.3888579,12.7749627 27.3639215,12.6323962 L27.3310372,12.4670805 L27.0982345,12.4915214 C26.8499597,12.510359 26.6130861,12.50966 26.3965999,12.4887117 L26.1872423,12.4609873 C25.7904036,12.3931079 25.5067968,12.2794879 25.3034691,12.0927785 L25.2127371,11.912979 C25.1388827,11.2243682 25.0118083,10.5423776 24.8326616,9.87316786 L24.7425424,9.53652374 L25.2171201,9.50621147 C25.4698466,9.48105439 25.72944,9.42593681 25.9920528,9.34285564 L26.2508713,9.25114665 L26.1907071,9.12531269 L25.988624,8.73896897 L25.8909587,8.5684491 L25.7147385,8.62849917 C25.579355,8.66988453 25.4475048,8.70211198 25.322235,8.7242034 L25.1396464,8.74961624 C24.9289501,8.77054366 24.7594511,8.76665184 24.6136005,8.73516969 L24.4629559,8.70265276 L24.4078502,8.55822558 C24.1853983,7.97519932 23.9233281,7.4112681 23.6255557,6.87322494 L23.4699396,6.59204322 L23.7666187,6.47235525 C23.8899402,6.42260419 24.0127391,6.36283265 24.1347337,6.29348548 L24.2438005,6.22672334 L24.1639555,6.13018641 L23.8721327,5.8013311 L23.7262147,5.64595902 L23.5970632,5.71623092 L23.4400078,5.7847438 L23.2853083,5.83751181 L23.0307516,5.89918494 L22.9206737,5.73996681 C22.7891095,5.54967068 22.6526408,5.36285015 22.5108252,5.17896788 L21.8637071,4.3652978 C21.2647995,3.6097066 20.8804715,3.07733743 20.5317878,2.48478481 L20.2465193,2 Z M12.0017396,2.06115931 L11.7078508,2.54097312 C11.4387853,2.98025961 11.1503244,3.38546546 10.7650786,3.87452516 L9.90132297,4.93280914 C9.75917941,5.10127673 9.61813142,5.27846365 9.47669056,5.46581262 L9.15135313,5.91144747 L8.96487018,5.86466767 L8.82319695,5.82061051 L8.74153583,5.78954261 C8.69186748,5.76969535 8.64052997,5.74612043 8.58775947,5.71906443 L8.45995484,5.64622052 L8.31186671,5.7992863 L8.01432459,6.12300302 L7.93116433,6.21764913 L8.04019396,6.28678643 C8.10035563,6.3224445 8.16071933,6.35568905 8.22128344,6.38647964 L8.4035753,6.47144912 L8.69798004,6.59624688 L8.53761504,6.87461956 C8.30545452,7.27761988 8.09478665,7.69252031 7.90646872,8.11755631 L7.66780571,8.68990208 L7.51595562,8.71944864 C7.36950435,8.74794472 7.20011302,8.74922663 6.99281736,8.72496377 C6.8162559,8.70427847 6.6218887,8.65939576 6.41995242,8.59379358 L6.24210565,8.53014332 L6.14084265,8.70388851 L6.03426852,8.89462806 L5.87079449,9.20426781 L6.13134273,9.30240132 C6.30576857,9.36124336 6.47861846,9.40745719 6.64898913,9.44044743 L6.90257282,9.47994068 L7.02583649,9.49202154 L7.37458243,9.51530194 L7.27825803,9.85273886 C7.08807721,10.5189671 6.94976222,11.1988285 6.86456292,11.8861797 L6.77077116,12.0645696 C6.56432192,12.2478097 6.27875738,12.3565124 5.88066391,12.4175051 C5.61028323,12.4588938 5.29889623,12.4630138 4.9677735,12.4319466 L4.73280407,12.4029043 L4.69889412,12.5678082 C4.67147892,12.7099139 4.64657092,12.8524859 4.62418183,12.9954573 L4.60129439,13.155482 L4.62816707,13.1616301 C5.01265668,13.2157696 5.38361048,13.2286643 5.7332907,13.1984751 L5.99144116,13.1677262 C6.12897498,13.1462734 6.26484314,13.1150118 6.39801097,13.0741793 L6.76773162,12.960814 L6.76309397,13.3481932 C6.7558843,13.9504105 6.79211738,14.5522046 6.87150951,15.1488635 L6.85351628,15.2925481 C6.69801146,15.6806583 6.36753801,15.9695542 5.83757843,16.2119423 C5.55435377,16.3415505 5.21840177,16.4424117 4.85158387,16.5106854 L4.57182284,16.5552575 L4.58961984,16.6978863 L4.65590088,17.1278243 L4.68875246,17.3089433 L4.74591503,17.3024853 C5.15647826,17.2424375 5.5417143,17.1450473 5.89301994,17.0107901 L6.15000279,16.903192 C6.35955078,16.8070984 6.55844047,16.6890461 6.74334254,16.5510113 L7.07641209,16.3023651 L7.18518318,16.7031331 C7.33621025,17.2595937 7.52984624,17.803386 7.76436821,18.3296713 L7.78761447,18.4729039 C7.74049715,18.9579159 7.46222542,19.3888421 6.9494607,19.8148995 C6.68493834,20.0346464 6.3589975,20.2382416 5.99176432,20.4162921 L5.69189538,20.5505888 L5.74859353,20.6774504 L5.93642651,21.0705841 L6.02181633,21.2377367 L6.09802615,21.2065329 C6.50246619,21.0277815 6.87126494,20.8183687 7.19566708,20.5813894 L7.43050752,20.3985344 C7.67471134,20.1956081 7.88730238,19.9693906 8.05922883,19.727109 L8.30122305,19.3860867 L8.52753446,19.7361058 C8.87967053,20.2807286 9.27620323,20.7801685 9.71370719,21.2284875 L9.78244348,21.3456669 C9.95285256,21.920242 9.7968162,22.5053605 9.33238163,23.1606623 C9.0908222,23.501611 8.76131614,23.8430827 8.37147474,24.1621669 L8.13547212,24.3461577 L8.22125191,24.4451305 C8.31877207,24.5538682 8.41790862,24.6611355 8.51862849,24.7668966 L8.65540583,24.9054878 L8.71674821,24.8611431 C9.13004604,24.5388829 9.48846574,24.1902352 9.78092477,23.822585 L9.94839625,23.5997736 C10.2087302,23.2324651 10.3989447,22.8365133 10.5024877,22.4381869 L10.6059859,22.0400331 L10.9403268,22.2766114 C11.3969635,22.5997256 11.8820592,22.876746 12.3919892,23.1044215 L12.5365481,23.2516343 C12.7472212,23.7463914 12.7134334,24.319154 12.4580126,25.0064462 C12.2483097,25.5701662 11.8757121,26.1755356 11.3980892,26.7425398 L11.206218,26.9605996 L11.2964628,27.0184648 C11.9281183,27.4031684 12.5766144,27.7222403 13.233773,27.9702191 L13.6290422,28.1104316 L13.8978526,28.1997193 L13.2958366,30 L13.0275546,29.9109231 C11.9659342,29.5584363 10.9342751,29.0588197 9.95478435,28.4272368 L9.69960774,28.2557343 L9.61098773,28.3159096 C9.20837734,28.5753094 8.79969725,28.784501 8.40769136,28.9310339 L8.11716872,29.0289906 L7.8813813,29.0918299 C7.3583836,29.213336 6.92145281,29.2194758 6.46298156,29.0574015 C5.6332926,28.4600262 4.86514305,27.7812103 4.16985689,27.0309609 L3.74063684,26.5678104 L4.37208653,26.5531692 C5.09352576,26.5364415 5.87018145,26.3589797 6.64989348,26.0440735 L6.97087957,25.9054022 L6.92002152,25.8522908 L6.60923511,25.5026209 L6.44287137,25.3057174 L6.34917152,25.3455764 C5.66682773,25.6139527 4.97981467,25.772008 4.38427554,25.7931985 L4.13492522,25.7938233 C3.6421774,25.7777923 3.25221132,25.6820947 2.85782016,25.4111002 C2.1241757,24.3675493 1.52064385,23.237585 1.06062392,22.0462943 L0.851857392,21.5056621 L1.40616031,21.6704952 C2.12834036,21.8852501 2.96909067,21.9306433 3.85746693,21.8180653 L4.16895528,21.7708058 L4.13272499,21.6959167 C4.06685083,21.5564141 4.00291524,21.4159934 3.94093674,21.2746951 L3.84648239,21.0515377 L3.76843805,21.0634706 C2.97142012,21.1604311 2.19759997,21.1184608 1.60151594,20.9370846 C1.1082723,20.7870941 0.758744225,20.5828807 0.522975028,20.2876674 L0.469487571,20.1793958 C0.192035758,19.0658917 0.0387351336,17.9244996 0.0123996805,16.7761706 L0,16.235496 L0.508849464,16.5691709 C1.05763613,16.912112 1.73139801,17.1485805 2.47964677,17.2731144 L2.77457116,17.3146016 L2.76149072,17.2295837 C2.73869244,17.0766191 2.7182213,16.9232312 2.7000907,16.7694926 L2.67527635,16.5299705 L2.61361045,16.5211401 C2.04951068,16.4245231 1.52477557,16.2568143 1.10871216,16.0373435 L0.910057297,15.9233841 C0.489246791,15.6603405 0.225856684,15.3829893 0.0994203147,15.0437508 L0.0828799982,14.9167956 C0.190700087,13.8112073 0.416615193,12.7200125 0.756734485,11.6620043 L0.896740766,11.2264872 L1.24083619,11.5609027 C1.59310542,11.9316298 2.04587999,12.2540128 2.57282741,12.5179745 L2.79571526,12.6226229 L2.81157283,12.5250515 C2.83776619,12.3721262 2.86615692,12.2206751 2.89680434,12.0706494 L2.94501176,11.8484679 L2.92087438,11.8377024 C2.54007269,11.6446813 2.20039983,11.417776 1.93789794,11.1793001 L1.78994567,11.0350046 C1.54647081,10.7788508 1.39760742,10.5511794 1.33119618,10.3134844 L1.34515372,10.1214067 C1.79276556,9.11042448 2.34797534,8.15060796 3.00108453,7.25872339 L3.25442501,6.91276216 L3.47261107,7.28038969 C3.63713273,7.55759663 3.85262073,7.82215871 4.11364338,8.07177614 L4.27410483,8.21660784 L4.53853245,7.73271028 L4.65460423,7.5329291 C4.47477762,7.36109447 4.32416543,7.18957627 4.20779347,7.02354565 L4.10319772,6.85970936 C3.96615211,6.62040865 3.89976159,6.43720611 3.89830237,6.25879604 L3.97144509,6.06567109 C4.56362302,5.40671261 5.21029269,4.79913628 5.90449634,4.24947924 L6.20233973,4.01365259 L6.34256266,4.36609371 C6.39547869,4.49909467 6.46044596,4.63145834 6.53719871,4.76351961 L6.60397894,4.86961849 L6.82090148,4.63044988 L7.14578133,4.28718126 L7.09122459,4.18171749 C7.0678523,4.13267181 7.0470041,4.08463907 7.02892974,4.03807755 L6.98327794,3.90326498 L6.93291539,3.69989249 L6.90079855,3.51494434 L7.05800423,3.41228051 C7.24122951,3.29262447 7.42687357,3.17674921 7.64742438,3.04804182 C8.94893279,2.48469755 9.99567808,2.23626327 11.4431518,2.10991701 L12.0017396,2.06115931 Z" id="Combined-Shape" fill="#FA751F"></path>
    </g>
</svg>