<?xml version="1.0" encoding="UTF-8"?>
<svg width="32px" height="32px" viewBox="0 0 32 32" version="1.1" xmlns="http://www.w3.org/2000/svg" xmlns:xlink="http://www.w3.org/1999/xlink">
    <title>icons/team/newcomer</title>
    <g id="icons/team/newcomer" stroke="none" stroke-width="1" fill="none" fill-rule="evenodd">
        <rect id="ViewBox" x="0" y="0" width="32" height="32"></rect>
        <path d="M13.2667434,1.00001322 C9.24711179,1.00686719 4.62926557,3.47293876 2,6.50665917 C2,6.50665917 8.12946319,5.96534055 9.11503253,8.79616329 C10.7068567,13.3682018 2.38670628,12.8510192 2.26668728,20.0009036 C2.1763002,25.387695 8.06079754,30.9562167 13.6850268,30.9597015 C13.9582629,31.0503731 25.4828753,30.9597015 25.4828753,30.9597015 C26.7656067,30.9416318 26.8189701,29.5043754 22.3179009,28.595337 C31.758099,19.0536606 16.693542,18.3295792 16.7769264,25.6409945 C15.6126577,24.427545 16.8143391,19.1993804 23.1112842,19.4564874 C25.2451715,20.9717665 26.4711031,21.2230008 28.8535224,20.7009781 C29.3062359,20.601788 29.6348455,19.0446902 28.4993659,18.9544059 L26.4387479,18.7904873 C24.6163524,17.1334251 24.1811457,16.4364483 26.0062645,15.0821192 C30.4718013,16.2474902 31.0019987,15.8614425 31,14.2218692 C30.9980435,12.6178546 30.3822572,8.37287898 26.731436,8.16752897 C26.2321025,7.50210977 27.3662205,5.45435333 26.4751232,5.39530391 C25.2422537,5.31360275 23.2018658,7.22919174 23.4752316,8.22109293 C22.2863886,8.72156096 20.9641047,10.2317418 19.6399404,12.0682756 C15.1454849,13.7093977 11.8921983,21.273467 11.8494039,23.0799921 C11.8118615,11.3065703 21.7856286,11.425379 20.9410216,7.28378826 C20.0287216,2.80997188 16.5972545,0.994347424 13.2667434,1.00001322 L13.2667434,1.00001322 Z M27.9641758,10.4480627 C28.4286902,10.4480627 28.8052814,10.8228814 28.8052814,11.2852738 C28.8052814,11.7476017 28.4286902,12.1224203 27.9641758,12.1224203 C27.4995965,12.1224203 27.1230053,11.7476017 27.1230053,11.2852738 C27.1230053,10.8228814 27.4995965,10.4480627 27.9641758,10.4480627 Z" id="Shape" fill="#EE4C9C"></path>
    </g>
</svg>