<?xml version="1.0" encoding="UTF-8"?>
<svg width="29px" height="32px" viewBox="0 0 29 32" version="1.1" xmlns="http://www.w3.org/2000/svg" xmlns:xlink="http://www.w3.org/1999/xlink">
    <title>Shape</title>
    <g id="Page-1" stroke="none" stroke-width="1" fill="none" fill-rule="evenodd">
        <g id="Group-6-Copy-2" transform="translate(-326.000000, -123.000000)" fill="#EE4C9C">
            <g id="Group-7" transform="translate(0.000000, 116.000000)">
                <g id="Group-13" transform="translate(311.000000, 7.000000)">
                    <path d="M37.9047619,6.94375 C39.2853869,6.94375 40.4047619,5.82625 40.4047619,4.445625 C40.4047619,3.065 37.9047619,0 37.9047619,0 C37.9047619,0 35.4047619,3.119375 35.4047619,4.5 C35.4047619,5.880625 36.5235119,6.94375 37.9047619,6.94375 Z M29.9047619,6.94375 C31.2853869,6.94375 32.4047619,5.82625 32.4047619,4.445625 C32.4047619,3.065 29.9047619,0 29.9047619,0 C29.9047619,0 27.4047619,3.119375 27.4047619,4.5 C27.4047619,5.880625 28.5235119,6.94375 29.9047619,6.94375 Z M39.8485119,13.94375 L39.9047619,10 C39.9047619,9.44775 39.4570119,9 38.9047619,9 L36.9047619,9 C36.3547619,9 35.9047619,9.45 35.9047619,10 L35.9047619,14 L31.9047619,14 L31.9047619,10 C31.9047619,9.44775 31.4570119,9 30.9047619,9 L28.9047619,9 C28.3547619,9 27.9047619,9.45 27.9047619,10 L27.9047619,14 L23.9047619,14 L23.9047619,10 C23.9047619,9.44775 23.4570119,9 22.9047619,9 L20.9047619,9 C20.3522619,9 19.9047619,9.45 19.9047619,10 L19.9047619,13.998125 C17.6953869,13.998125 15.9047619,15.78875 15.9047619,17.941875 L15.9047619,22.235625 C16.5181369,22.617 17.2416369,22.94375 17.9047619,22.94375 C19.1947619,22.94375 20.7203869,21.710625 21.1985119,21.235625 C21.5891369,20.8469375 22.2197619,20.8469375 22.6103869,21.235625 C23.0360119,21.76875 24.6172619,22.94375 25.9047619,22.94375 C27.1922619,22.94375 28.7203869,21.710625 29.1985119,21.235625 C29.5891369,20.8469375 30.2197619,20.8469375 30.6103869,21.235625 C31.0360119,21.76875 32.6172619,22.94375 33.9047619,22.94375 C35.1922619,22.94375 36.7203869,21.710625 37.1985119,21.235625 C37.5891369,20.8469375 38.2197619,20.8469375 38.6103869,21.235625 C39.0360119,21.76875 40.6172619,22.94375 41.9047619,22.94375 C42.5678869,22.94375 43.2916369,22.6170625 43.9047619,22.235625 L43.9047619,17.94375 C43.9047619,15.7875 42.1110119,13.94375 39.8485119,13.94375 Z M37.9047619,23.33125 C37.0453869,24.015625 35.5278869,24.9975 33.9047619,24.9975 C32.2816369,24.9975 30.7641369,24.01625 29.9047619,23.33125 C29.0453869,24.015625 27.5278869,24.9975 25.9047619,24.9975 C24.2816369,24.9975 22.7641369,24.01625 21.9047619,23.33125 C21.0453869,24.015625 19.5278869,24.9975 17.9047619,24.9975 C17.2003869,24.9975 16.5241369,24.8024375 15.9047619,24.5364375 L15.9047619,29.9976875 C15.9047619,31.10625 16.8003869,32 17.9047619,32 L41.9047619,32 C43.0091369,32 43.9047619,31.104375 43.9047619,30 L43.9047619,24.53875 C43.2853869,24.80475 42.6091369,24.9998125 41.9047619,24.9998125 C40.2797619,24.94375 38.7672619,24.01875 37.9047619,23.33125 Z M21.9047619,6.94375 C23.2853869,6.94375 24.4047619,5.82625 24.4047619,4.445625 C24.4047619,3.065 21.9047619,0 21.9047619,0 C21.9047619,0 19.4047619,3.119375 19.4047619,4.5 C19.4047619,5.880625 20.5241369,6.94375 21.9047619,6.94375 Z" id="Shape"></path>
                </g>
            </g>
        </g>
    </g>
</svg>