<?xml version="1.0" encoding="UTF-8"?>
<svg width="32px" height="32px" viewBox="0 0 32 32" version="1.1" xmlns="http://www.w3.org/2000/svg" xmlns:xlink="http://www.w3.org/1999/xlink">
    <title>icons/team/anniver 2</title>
    <g id="icons/team/anniver-2" stroke="none" stroke-width="1" fill="none" fill-rule="evenodd">
        <rect id="ViewBox" x="0" y="0" width="32" height="32"></rect>
        <path d="M24.2911907,21.3196418 C23.0860049,22.8053145 22.2219043,23.950972 21.6988889,24.7566145 C21.1758734,25.562257 20.7186241,26.4519803 20.3271407,27.4257847 C21.3388701,26.6424898 22.1287243,26.1348045 22.6967033,25.9027285 C23.2646823,25.6706525 24.1554677,25.4916293 25.3690595,25.3656589 L24.6654767,27.7081997 C24.196009,27.5439749 23.454136,27.6963418 22.4398575,28.1653005 C21.4255791,28.6342591 19.7942492,29.5791589 17.5458678,31 C17.8708138,29.4154652 18.5673133,27.8568049 19.6353661,26.3240193 C20.7034189,24.7912337 22.2553604,23.1231079 24.2911907,21.3196418 Z M8.26404309,18.3288735 C9.92328892,19.8192008 11.1831232,21.2495076 12.0435459,22.6197938 C12.9039685,23.99008 13.9054929,26.1611528 15.048119,29.1330121 C13.3775272,27.9882961 12.0325211,27.1777853 11.0131008,26.7014797 C9.99368044,26.2251741 8.78876345,25.8442798 7.39834983,25.5587967 C8.47965526,25.5773794 9.35014284,25.6543574 10.0098126,25.7897309 C10.6694823,25.9251044 11.6550778,26.2290207 12.9665991,26.7014797 C12.046641,25.0718494 11.2485729,23.8813393 10.5723949,23.1299493 C9.89621688,22.3785594 8.69811278,21.350861 6.97808257,20.0468542 L8.26404309,18.3288735 Z M29.2716637,22.7147845 C29.394196,22.6818592 29.5202193,22.7545001 29.5531445,22.8770324 L30.0219525,24.6217143 C30.0415538,24.6946614 30.0957611,24.7533122 30.1669412,24.7785882 L31.8534463,25.3774651 C31.9001568,25.3940519 31.9402497,25.4253016 31.9677393,25.4665487 C32.0381042,25.5721282 32.009557,25.7147592 31.9039775,25.785124 L30.4079997,26.7821375 C30.3455456,26.8237609 30.3073611,26.8932671 30.3057265,26.9683028 L30.2662612,28.7799611 C30.2651471,28.8311045 30.2469951,28.880413 30.2146823,28.9200712 C30.1345383,29.0184337 29.9898302,29.0332027 29.8914677,28.9530587 L28.5064076,27.8245365 C28.4470298,27.7761566 28.3674467,27.7605499 28.2941945,27.7829205 L26.5916002,28.3028775 C26.5433405,28.3176156 26.4915708,28.3160548 26.4442866,28.2984362 C26.3253931,28.2541352 26.2649239,28.1218399 26.3092249,28.0029464 L26.9424217,26.3035943 C26.968468,26.2336921 26.9589526,26.1554954 26.9169024,26.0938796 L25.8969406,24.5993358 C25.8687523,24.5580318 25.8548106,24.5086582 25.8572321,24.4587108 C25.8633759,24.3319808 25.9710914,24.2342264 26.0978214,24.2403703 L27.8768212,24.3266158 C27.95302,24.3303099 28.0260824,24.2959373 28.0718179,24.2348786 L29.1474079,22.7989211 C29.178241,22.7577577 29.2219949,22.7281308 29.2716637,22.7147845 Z M20.2733213,11.1243636 C19.9310082,16.1319202 19.5351472,19.6353712 19.0857382,21.6347167 C18.6363293,23.6340621 17.7896296,25.6585564 16.5456391,27.7081997 C16.2320572,26.2351155 15.907555,25.0143501 15.5721324,24.0459036 C15.2367097,23.0774571 14.646564,21.6574118 13.8016953,19.7857678 C14.8756422,21.4477371 15.6177961,22.7109899 16.0281572,23.5755262 C16.4385182,24.4400625 16.6481046,25.1819077 16.6569164,25.801062 C17.3221527,23.7777518 17.749863,21.8736511 17.9400473,20.08876 C18.1302317,18.303869 18.2238002,15.3157368 18.220753,11.1243636 L20.2733213,11.1243636 Z M5.34562179,19.8848977 C5.47176549,19.8712594 5.58508126,19.9624629 5.59871965,20.0886067 L5.81831232,22.1196564 C5.82639733,22.194436 5.87057598,22.2605218 5.9365856,22.2965786 L7.71326203,23.2670616 C7.75673944,23.2908104 7.79137511,23.3279774 7.81200338,23.3730193 C7.86483438,23.4883758 7.81414743,23.6247187 7.69879091,23.6775497 L5.86048945,24.5194553 C5.79197848,24.5508319 5.74321056,24.6138119 5.72998181,24.6879958 L5.37163602,26.6975189 C5.36262056,26.7480756 5.33692574,26.7941539 5.29865425,26.8283964 C5.20409845,26.9129981 5.05886264,26.9049287 4.97426098,26.8103729 L3.62595043,25.3034215 C3.57499445,25.2464701 3.49905489,25.2185848 3.42335188,25.2290266 L1.43297614,25.5035595 C1.38328687,25.5104131 1.33271993,25.500816 1.28899695,25.4762335 C1.17839977,25.4140523 1.13915088,25.2739877 1.2013321,25.1633906 L2.20249658,23.3826927 C2.23904156,23.3176928 2.24176501,23.238999 2.20980113,23.1716282 L1.33354577,21.3247288 C1.31198876,21.2792927 1.30593645,21.2280381 1.31631764,21.1788307 C1.34250848,21.0546845 1.46438074,20.9752759 1.58852694,21.0014668 L3.55431129,21.4161838 C3.62917086,21.4319768 3.7069803,21.4094672 3.76184576,21.356146 L5.2102045,19.9485524 C5.24697515,19.9128167 5.29464391,19.8904094 5.34562179,19.8848977 Z M27.5715455,12.1865169 C27.6974361,12.1707124 27.8123028,12.2599549 27.8281072,12.3858455 L28.1790256,15.1810857 C28.1883989,15.2557491 28.2337432,15.3210889 28.3004076,15.3559936 L30.7713558,16.6497553 C30.815243,16.6727342 30.8505268,16.7092838 30.8719452,16.7539533 C30.9268017,16.8683605 30.8785263,17.0055758 30.7641192,17.0604323 L28.2505704,18.2656412 C28.1826551,18.2982055 28.1350158,18.3619923 28.1230703,18.4363578 L27.6764165,21.2169433 C27.6682746,21.2676294 27.6433907,21.3141281 27.6057354,21.34902 C27.5126684,21.4352568 27.367314,21.4297199 27.2810772,21.336653 L25.3843015,19.2896493 C25.3323447,19.2335775 25.2559009,19.207022 25.1803716,19.2188069 L22.4412953,19.6461892 C22.3917034,19.6539271 22.340942,19.6452111 22.2967718,19.6213739 C22.1851149,19.5611162 22.1434477,19.4217519 22.2037054,19.3100951 L23.5407658,16.8325365 C23.5761794,16.7669155 23.5775413,16.6881886 23.5444185,16.621382 L22.2933894,14.0981316 C22.271065,14.0531047 22.2641217,14.0019994 22.2736237,13.9526484 C22.2976121,13.8280579 22.4180591,13.7465038 22.5426496,13.7704922 L25.2649272,14.2946347 C25.3400347,14.3090957 25.4174137,14.2852286 25.4713256,14.2309721 L27.4371986,12.2525336 C27.4733547,12.2161464 27.5206488,12.1929065 27.5715455,12.1865169 Z M3.62934535,9.29478602 C3.67975656,9.30467301 3.72539941,9.33117098 3.75898145,9.37004629 L5.58436691,11.483153 C5.63430712,11.5409649 5.70971839,11.5701698 5.78557027,11.561074 L8.5381298,11.2310024 C8.66410614,11.2158961 8.77847627,11.3057739 8.79358266,11.4317502 C8.79955096,11.4815216 8.78907642,11.5318792 8.7637566,11.5751426 L7.34229709,14.0039546 C7.30463045,14.0683146 7.30054607,14.1469531 7.33134248,14.214869 L8.4948166,16.7807007 C8.54721442,16.8962547 8.49601629,17.0324065 8.38046237,17.0848043 C8.33463007,17.1055869 8.2832416,17.1107454 8.23419295,17.0994872 L5.53200636,16.4792507 C5.45741937,16.4621307 5.37920442,16.4832743 5.32340194,16.5356422 L3.29080574,18.4431346 C3.19828683,18.5299591 3.05290028,18.5253429 2.9660758,18.432824 C2.93100299,18.3954509 2.90943477,18.3474229 2.90480206,18.2963799 L2.65008177,15.489883 C2.64328612,15.4150088 2.60028465,15.3481975 2.53494895,15.3110012 L0.109646447,13.930252 C-0.000615716929,13.8674786 -0.0391129953,13.7272056 0.0236603685,13.6169435 C0.0481722228,13.5738881 0.0859460565,13.5399104 0.131347517,13.5200786 L2.68440072,12.4048765 C2.75348707,12.3746988 2.80337056,12.3125454 2.81788009,12.2385651 L3.35969108,9.47601081 C3.38411021,9.351504 3.50483854,9.2703669 3.62934535,9.29478602 Z M14.6322615,12.5873447 L15.1177478,14.3940956 C15.1275485,14.4305692 15.1546522,14.4598946 15.1902422,14.4725326 L16.933579,15.0915904 C16.9569343,15.0998838 16.9769807,15.1155086 16.9907255,15.1361322 C17.0259079,15.1889219 17.0116344,15.2602374 16.9588446,15.2954198 L15.413625,16.3252512 C15.3823979,16.3460628 15.3633057,16.3808159 15.3624884,16.4183338 L15.321661,18.2925214 C15.3211039,18.3180931 15.3120279,18.3427474 15.2958715,18.3625765 C15.2557995,18.4117577 15.1834455,18.4191423 15.1342642,18.3790703 L13.6979362,17.2087758 C13.6682473,17.1845858 13.6284557,17.1767825 13.5918296,17.1879678 L11.8274109,17.7268054 C11.8032811,17.7341745 11.7773962,17.7333941 11.7537541,17.7245848 C11.6943074,17.7024343 11.6640728,17.6362866 11.6862233,17.5768399 L12.3403599,15.82129 C12.3533831,15.786339 12.3486254,15.7472406 12.3276003,15.7164327 L11.274374,14.1731467 C11.2602799,14.1524947 11.253309,14.1278079 11.2545198,14.1028342 C11.2575917,14.0394692 11.3114494,13.990592 11.3748144,13.993664 L13.2167224,14.0829593 C13.2548218,14.0848063 13.291353,14.06762 13.3142208,14.0370906 L14.4293932,12.5482891 C14.4448098,12.5277073 14.4666867,12.5128939 14.4915211,12.5062208 C14.5527873,12.4897581 14.6157989,12.5260785 14.6322615,12.5873447 Z M18.8535014,0.020251148 C18.9009234,0.0403246522 18.9402262,0.0757487123 18.9651015,0.120837678 L20.5425997,2.98021023 C20.5793301,3.04678781 20.6466235,3.09087824 20.7223297,3.09796881 L23.9410753,3.39943346 C24.0674013,3.41126503 24.1602173,3.52326386 24.1483858,3.64958984 C24.1437424,3.69916729 24.1231167,3.74589395 24.0896148,3.78273294 L21.8912748,6.20005173 C21.8410132,6.25531993 21.8207632,6.33157571 21.8369833,6.40449835 L22.5502913,9.61140161 C22.5778395,9.73525367 22.4997699,9.85798789 22.3759178,9.88553617 C22.326396,9.89655126 22.2746208,9.89086443 22.2286704,9.86936296 L19.2986938,8.49834396 C19.2292556,8.46585187 19.1481855,8.47013824 19.0825607,8.50977142 L16.3102685,10.1840602 C16.2016599,10.2496529 16.0604418,10.2147816 15.9948491,10.106173 C15.9685217,10.0625801 15.9574252,10.011475 15.9633035,9.96088927 L16.3425601,6.69717231 C16.3511978,6.6228405 16.3230909,6.54895972 16.2672311,6.49916501 L13.8324079,4.32870715 C13.7376968,4.24427943 13.7293604,4.0990587 13.8137881,4.00434755 C13.8468409,3.96726887 13.891021,3.94190166 13.939706,3.93204833 L17.1113187,3.29014753 C17.185639,3.27510589 17.2477501,3.22436008 17.2773083,3.15453124 L18.5523872,0.142259688 C18.6018458,0.0254175698 18.7366593,-0.0292075143 18.8535014,0.020251148 Z" id="Combined-Shape" fill="#FA751F"></path>
    </g>
</svg>